<svg width="33" height="32" viewBox="0 0 33 32" fill="none" xmlns="http://www.w3.org/2000/svg">
<path d="M19.7401 25.0933C19.4867 25.0933 19.2334 25 19.0334 24.8C18.6467 24.4133 18.6467 23.7733 19.0334 23.3867L26.4201 16L19.0334 8.61333C18.6467 8.22666 18.6467 7.58666 19.0334 7.2C19.4201 6.81333 20.0601 6.81333 20.4467 7.2L28.5401 15.2933C28.9267 15.68 28.9267 16.32 28.5401 16.7067L20.4467 24.8C20.2467 25 19.9934 25.0933 19.7401 25.0933Z" fill="white"/>
<path d="M27.6066 17H5.16663C4.61996 17 4.16663 16.5467 4.16663 16C4.16663 15.4533 4.61996 15 5.16663 15H27.6066C28.1533 15 28.6066 15.4533 28.6066 16C28.6066 16.5467 28.1533 17 27.6066 17Z" fill="white"/>
</svg>
